HIERARCHY
ROOT Hips
{
 OFFSET 0.000000 0.000000 0.000000
 CHANNELS 6 Xposition Yposition Zposition Yrotation Xrotation Zrotation
 JOINT Chest
 {
  OFFSET 0.000000 9.585900 0.002600
  CHANNELS 3 Yrotation Xrotation Zrotation
  JOINT Chest2
  {
   OFFSET 0.000000 9.601200 -0.005300
   CHANNELS 3 Yrotation Xrotation Zrotation
   JOINT Chest3
   {
    OFFSET 0.000000 9.561800 0.000000
    CHANNELS 3 Yrotation Xrotation Zrotation
    JOINT Chest4
    {
     OFFSET 0.000000 9.552100 0.000000
     CHANNELS 3 Yrotation Xrotation Zrotation
     JOINT Neck
     {
      OFFSET 0.000000 14.453000 0.000000
      CHANNELS 3 Yrotation Xrotation Zrotation
      JOINT Head
      {
       OFFSET 0.000000 8.936500 -0.011300
       CHANNELS 3 Yrotation Xrotation Zrotation
       End Site
       {
        OFFSET 0.000000 17.073600 -0.006000
       }
      }
     }
     JOINT RightCollar
     {
      OFFSET -2.921100 9.558500 0.000000
      CHANNELS 3 Yrotation Xrotation Zrotation
      JOINT RightShoulder
      {
       OFFSET -13.519700 0.000000 0.000000
       CHANNELS 3 Yrotation Xrotation Zrotation
       JOINT RightElbow
       {
        OFFSET 0.000000 -29.696600 0.000000
        CHANNELS 3 Yrotation Xrotation Zrotation
        JOINT RightWrist
        {
         OFFSET 0.000000 -24.004700 0.000000
         CHANNELS 3 Yrotation Xrotation Zrotation
         End Site
         {
          OFFSET 0.000000 -17.728500 0.000000
         }
        }
       }
      }
     }
     JOINT LeftCollar
     {
      OFFSET 2.921100 9.558500 0.000000
      CHANNELS 3 Yrotation Xrotation Zrotation
      JOINT LeftShoulder
      {
       OFFSET 13.519700 0.000000 0.000000
       CHANNELS 3 Yrotation Xrotation Zrotation
       JOINT LeftElbow
       {
        OFFSET 0.000000 -29.696600 0.000000
        CHANNELS 3 Yrotation Xrotation Zrotation
        JOINT LeftWrist
        {
         OFFSET 0.000000 -24.004700 0.000000
         CHANNELS 3 Yrotation Xrotation Zrotation
         End Site
         {
          OFFSET 0.000000 -17.728500 0.000000
         }
        }
       }
      }
     }
    }
   }
  }
 }
 JOINT RightHip
 {
  OFFSET -7.771700 -0.012900 -0.001300
  CHANNELS 3 Yrotation Xrotation Zrotation
  JOINT RightKnee
  {
   OFFSET 0.000000 -40.869800 0.001200
   CHANNELS 3 Yrotation Xrotation Zrotation
   JOINT RightAnkle
   {
    OFFSET 0.000000 -39.717900 0.002100
    CHANNELS 3 Yrotation Xrotation Zrotation
    JOINT RightToe
    {
     OFFSET 0.000000 -4.965400 11.033500
     CHANNELS 3 Yrotation Xrotation Zrotation
     End Site
     {
      OFFSET 0.000000 -1.423100 5.872300
     }
    }
   }
  }
 }
 JOINT LeftHip
 {
  OFFSET 7.771700 -0.012900 -0.001300
  CHANNELS 3 Yrotation Xrotation Zrotation
  JOINT LeftKnee
  {
   OFFSET 0.000000 -40.869800 0.001200
   CHANNELS 3 Yrotation Xrotation Zrotation
   JOINT LeftAnkle
   {
    OFFSET 0.000000 -39.717900 0.002100
    CHANNELS 3 Yrotation Xrotation Zrotation
    JOINT LeftToe
    {
     OFFSET 0.000000 -4.965400 11.033500
     CHANNELS 3 Yrotation Xrotation Zrotation
     End Site
     {
      OFFSET 0.000000 -1.423100 5.872300
     }
    }
   }
  }
 }
}
MOTION
Frames: 16
Frame Time: 0.008333
-6.388877 58.289107 43.269387 -179.068229 -32.502854 -3.542766 1.672926 23.570409 3.247501 0.148723 3.558860 0.257748 0.256089 5.687507 0.360871 1.089471 19.857665 1.587542 0.638769 8.984520 -2.838721 2.600620 -19.018158 -5.857988 4.494570 -3.942292 -1.691409 15.903822 -20.808597 -26.914169 145.615796 -76.611827 -105.932005 22.578946 -15.671966 -48.100381 -7.916507 -5.579680 -1.175351 0.071491 -9.512820 4.828173 -137.212235 -59.221299 106.797176 -16.211436 1.105537 10.429726 7.187078 -37.872033 -5.090757 -3.033109 70.187017 -2.020533 2.343327 2.944519 6.300583 -0.046697 0.111914 -0.047883 -12.480544 -45.607615 3.293100 27.967695 66.418098 26.007976 -7.991589 33.277455 2.027788 0.533131 -20.217112 -6.088111
-6.405201 58.292030 43.274569 -179.070736 -32.512867 -3.550287 1.687862 23.552400 3.217562 0.158758 3.524742 0.213359 0.257291 5.701206 0.389201 1.102324 19.842705 1.558417 1.027804 9.020937 -2.797212 3.338579 -18.929215 -5.958905 4.466671 -3.904753 -1.683419 15.790745 -20.840501 -26.740469 145.397853 -76.546302 -105.746195 22.582176 -15.671172 -48.113888 -7.921530 -5.561046 -1.157456 0.018624 -9.625721 4.895840 -137.245081 -59.239132 106.830590 -16.204860 1.089390 10.475582 7.230160 -37.851221 -5.152732 -3.013116 70.168266 -1.929884 2.360189 2.960822 6.289838 -0.051208 0.110305 -0.049695 -12.502728 -45.590770 3.285114 27.991477 66.396937 26.038819 -7.996221 33.279839 2.008872 0.538076 -20.216168 -6.088355
-6.421892 58.295878 43.278880 -179.069451 -32.527242 -3.554055 1.710977 23.502806 3.137737 0.157333 3.537261 0.240563 0.261063 5.697705 0.392867 1.115980 19.825855 1.529704 1.420348 9.067712 -2.755637 4.081957 -18.819264 -6.059897 4.442168 -3.860078 -1.657992 15.723332 -20.857885 -26.610814 145.171060 -76.498656 -105.597395 22.584744 -15.669298 -48.139451 -7.921152 -5.530585 -1.132548 -0.062363 -9.765803 4.965783 -137.255279 -59.256632 106.848069 -16.200730 1.080727 10.529698 7.252542 -37.826555 -5.194000 -3.029037 70.150197 -1.907519 2.380230 2.976523 6.291352 -0.048313 0.106577 -0.053895 -12.511403 -45.569691 3.252642 28.030641 66.367081 26.095202 -7.989060 33.287041 2.001636 0.532706 -20.217940 -6.095336
-6.436279 58.299136 43.284587 -179.055806 -32.529867 -3.570860 1.726964 23.468952 3.110960 0.160788 3.528809 0.235014 0.266486 5.684880 0.384058 1.132967 19.807838 1.502422 1.806786 9.122713 -2.713489 4.811924 -18.692835 -6.155381 4.411847 -3.804482 -1.589693 15.665236 -20.869206 -26.520899 144.955867 -76.448741 -105.464763 22.588811 -15.663465 -48.178885 -7.926771 -5.493658 -1.100347 -0.165354 -9.935363 5.039157 -137.238386 -59.271978 106.847067 -16.190119 1.068272 10.579916 7.243182 -37.814157 -5.204564 -3.061948 70.129414 -1.929057 2.400151 2.992558 6.299105 -0.048604 0.103299 -0.053395 -12.526857 -45.560096 3.235545 28.041378 66.341627 26.127653 -8.006270 33.293383 1.979177 0.546582 -20.213479 -6.097767
-6.446597 58.302722 43.290058 -179.039052 -32.533409 -3.603194 1.737583 23.453981 3.119607 0.182285 3.502786 0.208097 0.273258 5.671783 0.375753 1.154941 19.789106 1.477400 2.178186 9.183777 -2.670578 5.511022 -18.554800 -6.240830 4.368503 -3.768539 -1.583519 15.592450 -20.875839 -26.369378 144.755988 -76.402693 -105.362691 22.596155 -15.656832 -48.234359 -7.941996 -5.460124 -1.063471 -0.289681 -10.130178 5.121930 -137.203972 -59.289418 106.834905 -16.170060 1.056648 10.626202 7.220934 -37.800424 -5.197610 -3.072728 70.105846 -1.922878 2.412599 3.010794 6.299826 -0.050877 0.101482 -0.049009 -12.560269 -45.548343 3.254064 28.042876 66.329006 26.137514 -8.023419 33.285837 1.962042 0.560529 -20.200439 -6.095543
-6.458815 58.306991 43.293769 -179.031659 -32.549154 -3.606335 1.781906 23.422816 3.086408 0.179267 3.502552 0.214212 0.280499 5.657976 0.367896 1.178932 19.769118 1.454316 2.530258 9.251271 -2.626963 6.170676 -18.405208 -6.314156 4.329847 -3.734569 -1.582419 15.525812 -20.874764 -26.235560 144.662032 -76.381928 -105.323380 22.630674 -15.620669 -48.362880 -7.955737 -5.433029 -1.025585 -0.442271 -10.347566 5.218192 -137.160189 -59.316689 106.817438 -16.147029 1.063822 10.689557 7.263787 -37.776954 -5.252833 -3.060944 70.094860 -1.857004 2.416595 3.040458 6.297511 -0.049693 0.086113 -0.049033 -12.537979 -45.529260 3.202197 28.069253 66.303108 26.193263 -8.006769 33.288938 1.971844 0.547880 -20.198055 -6.105189
-6.469182 58.309116 43.300206 -179.022307 -32.545568 -3.607144 1.830137 23.370043 3.055953 0.148587 3.526225 0.240774 0.311550 5.618596 0.338081 1.204336 19.747538 1.433492 2.858785 9.326438 -2.582541 6.782538 -18.242239 -6.373100 4.296753 -3.691519 -1.565244 15.422154 -20.888347 -26.089919 144.471910 -76.332106 -105.242917 22.608946 -15.639565 -48.436674 -7.962503 -5.411945 -0.989857 -0.627568 -10.588420 5.329248 -137.104184 -59.356733 106.789621 -16.120607 1.088732 10.784027 7.280992 -37.773360 -5.285849 -3.007259 70.081924 -1.786306 2.403886 3.054036 6.298780 -0.046020 0.098563 -0.038651 -12.513225 -45.528620 3.147226 28.072744 66.269529 26.242793 -8.024251 33.300003 1.944459 0.552010 -20.194069 -6.105880
-6.476606 58.311564 43.305362 -178.999287 -32.550999 -3.619120 1.865769 23.332831 3.042560 0.165245 3.503812 0.225694 0.309297 5.615343 0.342875 1.232596 19.724775 1.414728 3.157387 9.410455 -2.536636 7.333881 -18.064546 -6.413537 4.261196 -3.646432 -1.552081 15.289972 -20.928142 -25.913686 144.275729 -76.288801 -105.123381 22.593049 -15.658987 -48.541757 -7.963837 -5.398260 -0.954939 -0.846044 -10.853282 5.458332 -137.046458 -59.410747 106.752194 -16.085558 1.124699 10.924221 7.286460 -37.762764 -5.311192 -2.957704 70.073306 -1.718879 2.394660 3.079404 6.303281 -0.043089 0.090895 -0.036617 -12.492976 -45.520552 3.090554 28.088863 66.238133 26.308690 -8.037196 33.307346 1.925678 0.550245 -20.186960 -6.109384
-6.485157 58.312177 43.312127 -178.925826 -32.542568 -3.639087 1.839584 23.294322 3.014652 0.200827 3.469442 0.205063 0.305048 5.612165 0.347228 1.263510 19.701376 1.397124 3.422367 9.504543 -2.489214 7.817466 -17.870722 -6.433634 4.223371 -3.600111 -1.542590 15.186514 -20.953378 -25.774968 144.179974 -76.281160 -105.052334 22.628217 -15.654788 -48.774670 -7.958740 -5.394826 -0.917792 -1.095303 -11.142669 5.612676 -137.014003 -59.485671 106.720304 -16.043064 1.182052 11.140752 7.253792 -37.762404 -5.354913 -2.909071 70.072514 -1.663382 2.388741 3.097343 6.310564 -0.039925 0.084932 -0.035037 -12.491324 -45.527828 3.001642 28.098912 66.181062 26.390952 -8.118650 33.356852 1.840166 0.582482 -20.200795 -6.093759
-6.490097 58.313134 43.317526 -178.910081 -32.547615 -3.640383 1.892393 23.250576 3.007459 0.206651 3.459037 0.200866 0.314310 5.596360 0.340709 1.296115 19.677619 1.379706 3.651809 9.608993 -2.439706 8.229345 -17.660838 -6.431438 4.186249 -3.552386 -1.536330 15.087076 -20.991698 -25.640794 144.158704 -76.245011 -105.145866 22.611255 -15.674548 -48.957400 -7.945164 -5.404548 -0.877514 -1.377461 -11.456735 5.806282 -137.019804 -59.588834 106.699270 -15.990762 1.274376 11.473955 7.263208 -37.756565 -5.380850 -2.890855 70.068613 -1.633297 2.391834 3.120956 6.314710 -0.039452 0.077075 -0.032918 -12.450382 -45.523365 2.934197 28.110703 66.149574 26.454695 -8.129772 33.375453 1.826743 0.578163 -20.203498 -6.098098
-6.495192 58.313611 43.322577 -178.899825 -32.555374 -3.631829 1.971980 23.194125 2.998373 0.196935 3.459716 0.203070 0.324108 5.579948 0.333990 1.330737 19.652872 1.361822 3.844415 9.724274 -2.386806 8.566473 -17.434413 -6.403938 4.148556 -3.502937 -1.530750 15.000489 -21.043574 -25.513687 144.179599 -76.207948 -105.282466 22.590464 -15.694416 -49.184529 -7.924222 -5.427496 -0.833282 -1.699400 -11.797393 6.052722 -137.062300 -59.726065 106.678379 -15.924260 1.408525 11.962402 7.370867 -37.744188 -5.483695 -2.881261 70.070116 -1.528577 2.391922 3.148788 6.314349 -0.047024 0.057503 -0.040391 -12.398303 -45.515778 2.858464 28.116946 66.118734 26.509254 -8.136245 33.388684 1.821157 0.581389 -20.198658 -6.109419
-6.501658 58.314812 43.325468 -178.871878 -32.576970 -3.622179 2.022901 23.161134 2.982599 0.203926 3.448473 0.198726 0.335277 5.562780 0.327180 1.370475 19.626710 1.344466 3.999714 9.850801 -2.330787 8.828347 -17.190915 -6.351587 4.104478 -3.452961 -1.523276 14.934146 -21.103942 -25.397779 144.186588 -76.189661 -105.386701 22.587080 -15.728379 -49.484895 -7.905051 -5.465024 -0.785245 -2.059578 -12.165335 6.359213 -137.157696 -59.904348 106.659004 -15.843259 1.588612 12.617494 7.408213 -37.719709 -5.548969 -2.869671 70.076035 -1.483284 2.396955 3.170130 6.321577 -0.047751 0.050220 -0.041036 -12.346662 -45.494818 2.761190 28.121160 66.088269 26.560585 -8.133345 33.397571 1.826003 0.580367 -20.188618 -6.125674
-6.516365 58.318390 43.323184 -178.832743 -32.633170 -3.569908 2.053009 23.160753 2.919210 0.211956 3.437370 0.194376 0.348208 5.545824 0.320308 1.416668 19.600446 1.327654 4.117539 9.987041 -2.271622 9.015082 -16.933327 -6.274802 4.052704 -3.408297 -1.508391 14.888791 -21.168661 -25.298340 144.222745 -76.178353 -105.527462 22.583870 -15.786455 -49.828893 -7.895830 -5.520102 -0.733841 -2.461235 -12.557308 6.733290 -137.319870 -60.130656 106.654029 -15.739846 1.812653 13.415595 7.444015 -37.658261 -5.653843 -2.849328 70.098678 -1.459989 2.405124 3.174785 6.337104 -0.045843 0.046100 -0.041050 -12.230766 -45.435461 2.556325 28.130055 66.037806 26.628935 -8.107282 33.385929 1.848589 0.560415 -20.164054 -6.146835
-6.524093 58.319990 43.324174 -178.809239 -32.666452 -3.552346 2.120410 23.132103 2.903696 0.220818 3.426858 0.190073 0.362540 5.529733 0.313583 1.468013 19.575127 1.311759 4.199598 10.131328 -2.209100 9.130227 -16.664663 -6.174496 4.000661 -3.375014 -1.483622 14.857351 -21.234071 -25.217324 144.282977 -76.172598 -105.698955 22.583652 -15.873053 -50.212111 -7.898047 -5.591373 -0.679151 -2.921694 -12.967583 7.177348 -137.523350 -60.409208 106.662072 -15.601499 2.075196 14.316943 7.498785 -37.626511 -5.735727 -2.835580 70.112734 -1.401230 2.415494 3.211822 6.343086 -0.048943 0.036579 -0.039650 -12.193818 -45.399748 2.473763 28.125956 66.014842 26.646843 -8.101459 33.383597 1.848155 0.560760 -20.153459 -6.153627
-6.528717 58.321027 43.325994 -178.790838 -32.692905 -3.552652 2.205302 23.093752 2.911744 0.230280 3.416825 0.185918 0.377733 5.514399 0.307283 1.522850 19.550597 1.297428 4.249458 10.283742 -2.144775 9.181520 -16.384343 -6.055445 3.954659 -3.352287 -1.454154 14.837699 -21.301357 -25.157978 144.367485 -76.172385 -105.898184 22.586422 -15.988406 -50.616404 -7.910876 -5.675630 -0.622984 -3.451833 -13.382328 7.682151 -137.728149 -60.732941 106.674835 -15.418027 2.356742 15.268463 7.538606 -37.598166 -5.784050 -2.823330 70.116265 -1.348200 2.416685 3.234101 6.343472 -0.050794 0.033199 -0.037478 -12.186898 -45.371525 2.441275 28.105778 66.008338 26.636214 -8.094879 33.380350 1.845597 0.564561 -20.146674 -6.156671
-6.535993 58.321196 43.328662 -178.794258 -32.712510 -3.526608 2.251202 23.080659 2.895510 0.288821 3.376364 0.172502 0.393514 5.500039 0.301340 1.579904 19.527187 1.284268 4.270290 10.444143 -2.079603 9.175879 -16.092041 -5.921300 3.913897 -3.337681 -1.423927 14.833465 -21.377090 -25.126413 144.496527 -76.175760 -106.135326 22.590025 -16.129098 -51.015543 -7.936324 -5.773725 -0.565746 -4.049107 -13.780081 8.230627 -137.893412 -61.081258 106.680115 -15.190126 2.623051 16.212866 7.636868 -37.577957 -5.873360 -2.821298 70.123664 -1.282403 2.417653 3.255092 6.341655 -0.051447 0.036397 -0.033269 -12.138591 -45.347228 2.368648 28.110301 65.989460 26.659334 -8.057167 33.351730 1.878395 0.542350 -20.117650 -6.176263
